<?xml version="1.0" encoding="UTF-8" standalone="no"?>
<svg
   viewBox="0 0 1024 944.63629"
   version="1.1"
   id="svg12"
   sodipodi:docname="sitting.svg"
   width="1024"
   height="944.63629"
   inkscape:version="1.1.1 (3bf5ae0d25, 2021-09-20)"
   xmlns:inkscape="http://www.inkscape.org/namespaces/inkscape"
   xmlns:sodipodi="http://sodipodi.sourceforge.net/DTD/sodipodi-0.dtd"
   xmlns="http://www.w3.org/2000/svg"
   xmlns:svg="http://www.w3.org/2000/svg">
  <defs
     id="defs16" />
  <sodipodi:namedview
     id="namedview14"
     pagecolor="#ffffff"
     bordercolor="#999999"
     borderopacity="1"
     inkscape:pageshadow="0"
     inkscape:pageopacity="0"
     inkscape:pagecheckerboard="0"
     showgrid="false"
     inkscape:zoom="0.93619792"
     inkscape:cx="512.17803"
     inkscape:cy="472.65647"
     inkscape:window-width="1920"
     inkscape:window-height="1129"
     inkscape:window-x="-8"
     inkscape:window-y="-8"
     inkscape:window-maximized="1"
     inkscape:current-layer="react-group-119" />
  <g
     id="react-group-118"
     stroke="none"
     stroke-width="1"
     fill="transparent"
     fill-rule="evenodd"
     transform="translate(-1.3110359e-5,88.318136)">
    <g
       id="react-group-119">
      <g
         id="g1019"
         transform="matrix(1.3406676,0,0,1.3406676,-182.3307,-131.21876)">
        <path
           d="m 281.5303,633.8185 c 0.119,-40.625 0.9,-81.264 2.271,-121.866 1.018,-30.092 2.322,-60.206 4.845,-90.214 0.999,-11.888 2.161,-23.786 3.99,-35.579 1.133,-7.302 2.174,-15.257 5.255,-22.056 1.009,-2.225 1.983,-3.672 4.129,-4.81 7.936,-4.212 18.809,-4.831 27.558,-5.72 14.344,-1.457 28.863,-1.877 43.277,-1.58 -0.845,15.504 -1.689,31.008 -2.533,46.511 -0.65,11.941 -1.301,23.882 -1.951,35.822 -0.41,7.537 -1.4,15.288 -1.244,22.837 0.127,6.15 7.359,12.035 11.035,16.837 4.509,-13.793 9.018,-27.586 13.528,-41.379 2.384,6.156 4.932,12.259 7.704,18.249 1.829,3.951 3.691,8.018 6.116,11.65 2.216,3.318 2.865,3.786 6.716,3.22 4.636,-0.681 8.156,-2.056 10.896,1.39 2.429,3.055 4.691,6.171 7.327,9.071 29.107,32.013 73.961,51.894 115.522,60.888 24.479,5.296 49.173,9.597 73.642,14.998 37.36,8.246 75.734,16.377 111.417,30.472 5.592,2.209 11.245,4.582 16.347,7.796 5.626,3.543 9.644,8.904 13.537,14.212 9.512,12.97 20.663,34.243 5.992,47.78 -11.247,10.378 -28.82,11.42 -43.431,12.588 -15.103,1.208 -30.259,1.797 -45.4,2.289 -41.24,1.34 -82.519,1.63 -123.778,1.66906 -37.697,0.0289 -75.4,-0.18406 -113.09,-0.90506 -17.099,-0.327 -33.576,0.07 -50.121,-4.318 -33.862,-8.979 -67.627,-18.327 -101.406,-27.611 -2.716,-0.746 -5.433,-1.493 -8.15,-2.241"
           id="react-path-122"
           fill="#f1545d" />
        <g
           id="react-group-120"
           transform="translate(135.99994,31.999524)"
           fill="#000000">
          <path
             d="m 489.63096,246.77308 c -1.582,1.644 0.982,2.91 2.136,3.269 -0.186,-1.586 -0.951,-2.303 -2.136,-3.269 z m -216.83,309.05 c -0.61,-1.438 -1.52,-2.621 -3.183,-1.942 -2.75,1.121 2.813,1.927 3.183,1.942 z m 239.09,-231.712 c 1.137,0.141 5.786,-0.15 4.349,-2.68 -1.666,-2.932 -3.956,1.772 -4.349,2.68 z m -83.367,-25.939 c 2.444,-2.095 4.634,-5.298 4.66,-8.626 -2.304,1.529 -3.535,6.261 -4.66,8.626 z m 58.607,-42.064 c 2.036,0.103 0.173,-2.763 0.193,-3.334 0.042,-1.225 1.188,-2.277 1.002,-3.73 -0.007,-0.059 -2.059,-4.653 -2.6,-4.945 -1.523,-0.82 -2.408,0.683 -3.775,1.148 -2.024,0.689 -3.012,0.081 -5.185,0.293 -1.915,0.187 -3.528,1.119 -5.53,1.118 -0.475,0 -1.001,-1.008 -1.547,-0.952 -0.851,0.087 -0.932,1.172 -1.534,1.226 -2.115,0.188 -2.238,-0.652 -4.211,-1.441 -3.279,-1.312 -5.58,1.74 -5.506,5.347 0.097,4.778 5.081,6.731 8.9,7.829 4.925,1.415 7.661,2.268 12.665,1.377 1.447,-0.259 2.917,0.202 4.059,-0.796 1.535,-1.342 0.721,-4.173 2.473,-5.481 0.199,0.78 0.397,1.561 0.596,2.341 z m -173.269,190.101 c 0.409,3.122 -0.449,4.73 2.58,6.822 1.788,1.236 4.036,2.049 5.93,3.287 2.743,1.793 6.854,2.945 9.287,5.007 1.545,1.309 1.82,5.015 3.962,5.464 1.823,0.381 3.996,-2.913 4.621,-4.396 0.692,-1.643 0.23,-2.996 0.511,-4.637 0.189,-1.101 1.013,-1.33 0.868,-2.624 -0.151,-1.357 -1.467,-2.074 -2.039,-3.151 -0.512,-0.965 -0.667,-2.334 -1.068,-3.096 -0.947,-1.793 -3.048,-5.602 -4.921,-6.789 -1.578,4.142 -2.774,-0.055 -4.962,-1.271 -0.816,-0.022 -1.633,-0.03 -2.449,-0.021 -0.423,-0.403 -0.854,-0.798 -1.291,-1.184 -1.009,-0.094 -2.671,0.445 -3.581,0.726 -0.5,-0.114 -1.007,-0.181 -1.521,-0.2 -0.682,0.199 -0.953,0.579 -0.809,1.139 0.297,-0.136 -1.351,0.864 -1.508,0.971 -3.253,2.21 -6.237,3.092 -6.84,7.793 1.077,-1.279 2.154,-2.56 3.23,-3.84 z m 25.37,-167.854 c -3.478,-9.014 -2.374,-16.956 -2.038,-26.391 0.079,-2.215 0.551,-6.967 -1.764,-8.437 -2.889,-1.833 -5.293,2.313 -6.802,4.029 -2.59,2.945 -6.205,5.649 -7.532,9.471 -1.172,3.372 0.037,7.509 0.931,10.85 0.964,3.6 2.156,8.44 5.433,10.434 3.5,2.129 8.245,1.92 11.772,0.044 z m 122.604,191.706 c -0.501,-6.909 -10.11,-4.488 -14.431,-2.358 -3.231,1.593 -5.039,4.022 -7.074,6.91 -2.31,3.279 -3.067,4.195 -2.883,8.093 0.169,3.556 -0.029,7.133 0.862,10.671 0.452,1.796 0.553,2.113 1.745,3.35 -0.003,-0.003 2.064,2.056 1.489,1.727 2.666,1.522 6.642,1.777 9.774,2.013 4.477,0.336 5.554,0.397 7.371,-3.858 0.349,0.741 0.699,1.481 1.047,2.222 0.112,-0.524 1.356,-6.739 1.069,-6.678 -0.502,0.108 -1.041,1.554 -1.287,1.922 0.156,-2.863 2.194,-5.003 3.181,-7.556 0.909,-2.347 1.282,-5.005 1.983,-7.433 0.678,-2.35 1.437,-5.619 0.781,-8.058 -0.872,-3.239 -1.147,-2.317 -3.627,-0.967 z m 58.014,-152.296 c 1.561,1.471 0.17,3.85 0.373,5.672 2.122,-1.301 1.386,-1.998 2.208,-4.115 0.529,-1.363 2.089,-3.971 3.451,-1.737 0.573,0.939 -1.321,2.229 -0.039,2.781 0.754,0.324 2.76,-2.2 3.127,-2.597 2.529,-2.738 4.147,-5.537 4.356,-9.271 0.058,-1.022 0.043,-3.572 -0.32,-4.159 -1.051,-1.694 -3.847,-0.692 -3.607,-3.789 1.113,0.554 2.226,1.107 3.339,1.661 0.346,-3.483 -3.413,-5.544 -4.984,-8.308 -1.79,-3.149 -2.952,-5.44 -5.868,-8.149 -1.346,-1.251 -3.536,-3.828 -5.284,-4.43 -1.359,-0.468 -1.91,0.223 -3.281,0.236 -2.866,0.027 -7.174,-0.748 -2.907,2.432 -0.867,0.407 -2.006,0.66 -2.745,1.301 -0.548,0.475 -0.753,1.832 -1.395,2.157 -1.386,0.7 -2.423,-0.666 -3.988,0.889 -1.647,1.639 0.039,2.672 -0.328,3.394 -1.055,2.077 -2.507,1.044 -2.46,4.21 0.077,5.22 3.083,11.399 4.701,16.277 0.951,2.867 2.014,7.35 6.025,6.175 -0.152,1.38 -0.501,2.718 0.395,3.949 0.837,-0.985 1.137,-3.147 1.701,-4.304 0.832,-1.704 2.186,-3.35 3.142,-5.007 -0.14,2.619 -0.424,3.347 -2.204,5.33 2.342,0.287 5.227,2.164 6.592,-0.598 z m -171.359,75.862 c 2.148,-1.627 -0.673,-3.442 3.565,-2.519 1.081,0.236 -0.005,1.5 1.627,1.546 0.616,0.017 2.127,-1.499 2.554,-1.855 0.391,-0.326 2.147,-2.693 2.429,-2.846 -0.472,0.254 2.132,-0.755 1.319,-0.1 1.551,-1.249 2.732,-3.303 3.429,-5.8 1.71,-6.121 1.466,-13.435 -2.079,-18.693 -1.486,-2.204 -2.672,-4.894 -4.911,-6.373 -3.037,-2.006 -8.057,-3.199 -11.449,-4.473 l 1.098,-2.671 c -9.312,4.209 -15.734,14.034 -16.518,24.016 -0.282,3.591 -1.305,8.151 0.882,11.334 2.282,3.323 8.037,6.816 11.215,3.125 -0.483,2.057 0.934,4.517 3.108,5.045 0.822,0.2 1.598,-0.397 1.962,-0.344 0.463,0.066 1.44,0.674 1.769,0.608 z m -85.48,-208.41 c -6.257,-0.745 -5.287,10.557 -4.113,13.951 0.946,2.738 4.337,6.548 6.131,8.933 2.138,2.841 4.99,4.962 8.023,6.775 1.04,0.621 1.801,0.82 2.698,1.167 0.319,-0.317 0.7,-0.482 1.145,-0.496 0.391,0.652 0.945,1.14 1.661,1.463 2.275,0.708 6.04,0.6 8.301,0.505 3.644,-0.154 7.899,-2.251 11.524,-2.95 1.694,-0.327 2.637,-0.459 4.135,-1.339 0.755,-0.443 2.233,-3.858 2.444,-0.504 0.934,-0.575 0.639,-1.521 1.322,-1.942 0.652,-0.402 2.737,-0.789 3.514,-1.674 1.084,-1.234 2.525,-4.049 3.279,-5.735 0.485,-1.082 1.513,-3.87 1.432,-4.996 -0.172,-2.385 -0.941,-1.836 -2.979,-2.824 -1.362,-0.66 -2.146,-1.213 -3.507,-1.578 -0.158,-0.042 -0.536,0.771 -0.803,0.701 -0.467,-0.121 -0.655,-0.659 -0.982,-0.764 -2.486,-0.806 -5.42,-3.195 -8.494,-2.964 -1.327,0.1 -2.57,2.122 -3.252,2.019 -1.048,-0.159 -0.525,-2.311 -1.256,-3.091 -1.865,-1.986 -8.087,-1.665 -10.503,-2.009 -6.567,-0.936 -13.141,-1.809 -19.72,-2.648 z m 219.179,171.787 c 0.599,-4.689 1.337,-9.346 -3.805,-11.654 -1.93,-0.866 -3.536,-0.553 -5.515,-0.788 -2.571,-0.306 -2.197,-1.413 -4.105,1.346 -1.055,-1.355 -0.354,-1.795 -2.081,-1.956 -0.713,-0.066 -3.824,1.958 -4.633,2.289 -3.375,1.381 -7.673,1.253 -10.219,4.038 -2.474,2.707 -4.475,5.309 -5.518,9.002 -0.526,1.86 -0.872,3.787 -1.522,5.613 -0.703,1.975 -2.284,3.677 -2.825,5.652 -2.203,8.04 7.162,15.378 13.74,17.511 0.847,-0.174 1.678,-0.119 2.493,0.163 0.574,0.379 1.088,0.826 1.544,1.341 2.07,0.649 2.562,0.435 4.668,-0.515 3.472,-1.565 7.528,-2.098 10.156,1.564 0.811,-4.262 3.77,-1.726 5.193,-4.471 0.786,-1.514 -0.931,-5.708 0.064,-6.799 1.689,-1.853 6.957,1.442 6.821,-2.886 -0.05,-1.577 -1.842,-2.099 -2.463,-3.345 -1.115,-2.237 -0.496,-4.605 1.054,-6.571 0.145,0.339 0.706,2.568 1.449,1.978 1.97,-1.567 -1.269,-4.035 -1.976,-4.89 -1.165,-1.409 -2.225,-2.485 -1.965,-4.452 0.161,-1.22 2.118,-2.489 2.048,-3.675 -0.054,-0.903 -2.472,1.4 -2.603,1.505 z m -91.499,50.625 c 0.133,3.287 -1.967,3.716 -3.35,5.977 -0.376,0.616 -0.401,2.091 -0.927,2.994 -0.982,1.693 -1.665,1.798 -1.98,3.447 0.035,-0.184 0.526,1.634 0.538,1.841 0.135,2.32 -1.478,4.175 -1.034,6.726 0.623,3.589 3.35,7.586 5.273,10.571 4.347,6.748 10.424,11.979 18.749,12.456 5.56,0.319 18.641,-1.904 19.833,-7.717 -0.314,-0.674 -0.58,-1.368 -0.797,-2.082 -0.128,-1.033 0.255,-1.738 1.149,-2.115 0.686,-0.181 1.223,-0.562 1.61,-1.145 -0.188,-0.591 -0.498,-1.111 -0.928,-1.559 0.154,-0.778 1.465,-0.816 1.44425,-1.318 -0.0392,-0.934 -0.86125,-3.275 -1.08125,-4.34 -0.382,-1.84 -0.591,-3.592 -0.926,-5.444 -0.272,-1.498 -1.191,-2.238 -1.427,-3.612 -0.162,-0.937 0.79,-1.787 0.709,-2.781 -0.626,-0.561 -1.135,-1.215 -1.525,-1.962 -0.044,-0.776 0.147,-1.496 0.573,-2.159 -0.934,-6.537 -10.184,-12.028 -16.764,-12.178 -3.535,-0.081 -9.571,-0.335 -12.75,1.512 -2.125,1.234 -3.55,5.611 -6.389,2.888 z m -141.909,230.415 c -4.647,-2.095 -8.809,-4.327 -13.786,-5.344 -3.592,-0.735 -6.676,-2.753 -10.286,-3.411 -7.997,-1.458 -16.634,-2.803 -24.304,-5.607 -8.224,-3.008 -17.18,-4.085 -25.609,-6.585 -4.15,-1.231 -7.772,-2.038 -12.064,-2.276 -4.182,-0.231 -8.481,-2.563 -12.661,-2.169 -3.494,0.33 -5.986,3.014 -8.72,4.927 -3.545,2.481 -7.411,4.62 -11.221,6.669 -4.043,2.175 -8.547,3.265 -12.537,5.386 -3.313,1.76 -6.567,3.478 -9.983,5.092 -18.148996,8.576 -35.673996,16.587 -52.040996,28.519 5.278,1.606 11.282,0.005 16.527,-0.561 7.455,-0.806 14.883,-1.411 22.264,-2.792 4.319,-0.807 12.748996,-3.888 16.872996,-1.52 3.624,2.08 3.346,7.42 3.866,10.992 3.421,-1.32 6.827,-2.674 10.278,-3.914 2.714,-0.975 7.118,-3.656 9.884,-3.75 7.705,-0.261 6.863,10.552 6.113,15.514 4.502,-1.529 8.783,-2.596 13.147,-4.49 3.498,-1.519 7.361,-1.854 10.759,-3.665 8.443,-4.5 17.811,-7.32 26.851,-10.514 10.199,-3.605 20.376,-7.277 30.488,-11.123 4.156,-1.581 8.255,-3.668 12.507,-4.95 4.578,-1.381 9.265,-2.419 13.655,-4.428 z m 100.631,-412.3 c -0.646,6.082 0.02,12.215 0.206,18.304 0.218,7.13 0.227,14.184 1.15,21.272 1.666,12.787 4.011,25.577 8.589,37.676 4.168,11.02 11.202,18.812 23.114,21.194 10.702,2.139 21.132,-1.53 27.943,-10.081 7.065,-8.867 9.235,-20.066 13.372,-30.343 2.023,-5.025 3.521,-10.078 5.208,-15.22 1.012,-3.08 6.028,-11.922 4.593,-15.086 -1.401,-3.089 -9.668,-4.145 -12.53,-5.862 -4.547,-2.729 -8.752,-8.2 -12.222,-12.198 -2.325,-2.679 -3.683,-4.66 -5.251,-0.41 -1.885,5.107 -0.519,11.007 -2.278,15.961 -1.731,4.871 -5.509,0.066 -5.897,-3.109 -0.744,-6.096 0.151,-13.021 0.439,-19.148 0.537,-11.418 1.286,-24.624 11.582,-31.664 9.758,-6.672 20.349,-8.748 25.767,-20.267 2.172,-4.618 4.725,-9.456 3.368,-14.623 -1.568,-5.963 -3.889,-12.199 -6.172,-17.93 -4.386,-11.006 -11.255,-20.589 -17.26,-30.694 -0.811,-1.363 -0.981,-3.11 -2.753,-3.495 -2.004,-0.436 -6.682,2.973 -8.625,3.523 -5.291,1.496 -10.019,-1.608 -14.687,1.905 -3.746,2.82 -6.922,6.878 -11.976,7.173 -2.176,0.127 -5.129,-1.816 -7.004,-1.352 -2.389,0.591 -3.08,4.156 -4.001,6.159 -2.115,4.596 -4.475,10.355 -7.963,14.112 -1.184,1.275 -3.276,1.669 -4.287,2.856 -1.177,1.379 -0.523,4.179 -2.209,4.43 -0.977,0.145 -1.757,-1.18 -2.579,-1.496 -1.397,-0.538 -2.767,-0.641 -4.262,-0.597 -2.766,0.081 -5.636,0.749 -8.067,2.073 -5.653,3.078 -7.742,7.759 -0.948,10.574 2.723,1.129 5.68,1.969 8.626,2.231 3.233,0.287 6.504,-0.722 9.701,-0.328 6.165,0.759 8.061,5.915 9.657,11.213 2.194,7.288 3.967,14.667 6.431,21.879 2.013,5.892 5.67,11.881 6.726,18.036 0.649,3.781 -0.201,3.499 -2.725,5.837 -1.923,1.78 -3.079,4.117 -5.162,5.903 -5.808,4.979 -10.869,3.652 -17.614,1.592 z m 374.876,353.983 c -0.177,-1.299 -27.706,1.185 -30.834,0.863 -5.344,-0.55 -11.033,0.913 -16.558,0.726 -4.884,-0.166 -11.929,-2.063 -15.961,0.308 -1.495,0.879 -1.532,1.917 -3.892,1.469 -2.193,-0.416 -4.503,-1.966 -6.145,-3.403 -4.569,-3.998 -7.361,-10.288 -10.349,-15.473 -5.981,-10.376 -11.103,-21.127 -16.067,-32.039 -10.225,-22.475 -20.063,-45.078 -30.277,-67.558 -5.052,-11.119 -9.923,-22.258 -15.372,-33.171 -2.325,-4.658 -4.878,-9.767 -6.668,-14.646 -1.951,-5.321 -4.516,-10.316 -6.265,-15.771 -3.707,-11.553 -8.137,-22.934 -10.975,-34.815 -0.719,-3.008 -0.986,-6.158 -1.852,-9.123 -0.924,-3.167 -2.811,-5.875 -3.994,-8.941 -1.206,-3.124 -1.209,-5.912 -1.809,-9.105 -0.599,-3.182 -2.061,-6.284 -3.114,-9.332 -5.421,3.269 -11.594,6.244 -16.583,10.129 -4.907,3.823 -12.067,7.025 -10.013,13.936 1.868,6.286 5.176,12.066 7.144,18.344 2.208,7.043 4.92,13.928 7.051,20.987 4.573,15.155 8.576,30.488 12.671,45.779 1.924,7.184 4.328,14.382 5.738,21.689 0.734,3.801 0.614,7.2 1.996,10.882 1.35,3.599 2.63,7.12 3.739,10.805 1.974,6.559 3.858,13.132 6.042,19.623 1.182,3.513 2.127,7.065 2.967,10.674 0.509,2.181 2.24,6.376 1.753,8.634 -1.398,6.502 -9.998,-0.123 -12.056,-2.777 -4.775,-6.156 -8.2,-13.687 -11.776,-20.58 -14.358,-27.678 -21.418,-57.531 -28.821,-87.661 -1.946,-7.921 -3.825,-15.771 -6.012,-23.61 -2.292,-8.214 -2.959,-16.802 -5.664,-24.97 -2.795,-8.439 -5.646,-16.572 -7.699,-25.255 -0.949,-4.02 -1.953,-8.038 -2.796,-12.081 -0.45,-2.159 -0.469,-6.13 -3.344,-6.56 1.851,13.548 2.535,29.42 7.934,42.126 4.894,11.524 8.784,27.313 3.836,39.548 -2.379,5.884 -6.143,10.909 -8.973,16.514 -3.165,6.267 -5.227,13.462 -7.348,20.14 -4.392,13.828 -5.688,28.371 -8.627,42.516 -1.541,7.414 -1.571,12.485 -0.234,19.78 0.43,2.349 -0.329,4.216 1.649,5.722 1.99,1.515 6.592,1.821 9.051,2.69 7.465,2.639 13.883,4.575 21.788,5.44 7.467,0.818 14.479,2.301 21.591,4.747 12.816,4.407 26.143,7.701 38.736,12.119 6.888,2.417 13.531,6.723 20.153,9.811 6.888,3.213 14.195,5.312 20.688,9.322 6.995,4.318 13.912,9.333 20.54,14.174 6.14,4.484 9.083,10.058 11.639,17.036 4.859,13.266 17.11,30.482 5.794,43.868 3.967,1.724 8.507,2.409 12.308,4.252 1.312,0.637 1.703,1.258 3.195,1.624 1.951,0.479 4.462,0.096 6.46,0.226 2.89,0.188 8.98,2.267 11.798,1.427 2.634,-0.786 2.749,-4.607 4.641,-6.493 2.806,-2.796 5.499,-0.993 8.932,-1.304 5.085,-0.461 10.151,-1.128 15.239,-1.572 10.266,-0.895 20.503,-1.106 30.803,-1.082 -5.362,-5.951 -25.081,4.88 -25.565,-5.9 -0.561,-12.474 14.664,-8.732 22.065,-12.33 -6.727,0.198 -13.454,0.263 -20.168,0.796 -4.074,0.324 -11.907,2.274 -14.211,-2.203 -2.476,-4.814 1.508,-10.382 5.239,-12.896 5.163,-3.478 11.13,-5.696 16.842,-8.075 z m -561.076,-166.325 c -1.234,2.46 0.677,3.451 1.543,5.434 1.196,2.74 0.015,2.195 -0.225,4.773 -0.161,1.729 0.311,2.545 0.213,4.164 -0.041,0.689 -1.021,1.604 -1.136,2.388 -0.207,1.407 0.554,2.055 0.471,3.077 -0.041,0.507 0.615,0.597 0.481,1.332 -0.116,0.641 -1.592,1.092 -1.679,1.495 -0.5,2.337 0.901,1.167 1.115,2.275 0.358,1.849 -0.682,2.166 -1.274,3.867 -1.021,2.933 -0.034,4.3 0.597,7.05 0.534,2.319 -0.259,2.335 -0.56,4.55 -0.183,1.343 0.205,1.507 0.199,2.756 -0.018,4.314 -0.983,8.8 -1.023,13.371 -0.095,10.818 -1.011,21.479 -1.148,32.271 -0.135,10.604 -0.907,21.34 -1.371,32.077 -0.226,5.235 -0.757,10.452 -0.986,15.688 -0.267,6.08 0.328,12.131 -0.184,18.187 -0.465,5.505 -0.186,11.028 -0.414,16.548 -0.107,2.619 -1.455,10.544 0.265,12.305 2.234,2.286 11.286,-0.148 14.214,0.013 5.504,0.301 11.307,1.409 16.7,2.545 12.781,2.692 25.591,6.12 38.377,8.535 10.661,2.013 20.663,7.134 30.586,11.468 -0.909,-9.116 -2.514,-18.009 -2.811,-27.197 -0.266,-8.258 0.512,-16.473 0.329,-24.721 -0.391,-17.598 -1.388,-35.001 -0.995,-52.596 0.401,-17.892 1.843,-36.161 4.334,-53.883 1.145,-8.143 2.038,-16.818 4.951,-24.555 1.32,-3.505 3.469,-6.075 2.577,-9.931 -0.967,-4.176 -2.877,-8.542 -4.289,-12.592 -1.038,6.596 -4.696,50.549 -19.724,37.336 -5.868,-5.159 -8.585,-16.336 -9.897,-23.66 -1.772,-9.901 -1.136,-20.307 -1.09,-30.326 0.092,-20.413 2.337,-41.238 4.396,-61.539 0.411,-4.055 2.459,-7.681 -2.743,-7.487 -4.877,0.183 -9.889,1.338 -14.739,1.907 -4.198,0.492 -8.413,-0.706 -12.413,-0.17 -1.834,0.246 -3.456,1.332 -5.308,1.607 -2.337,0.347 -4.779,-0.161 -7.132,-0.158 -3.965,0.005 -8.562,-0.016 -11.853,2.451 -3.457,2.591 -6.421,6.879 -7.582,11.025 -1.16,4.147 -0.85,8.814 -1.584,12.956 -0.619,3.491 -0.751,7.799 -1.33,11.764 -2.509,-3.144 -2.348,1.394 -2.375,2.735 -0.031,1.62 -1.774,4.898 -1.325,5.848 0.29,0.613 2.238,0.289 2.403,0.769 0.339,0.99 -0.834,1.408 -0.855,2.148 -0.083,2.884 0.082,5.865 0.075,8.773 -0.68,-0.52 -1.362,-1.04 -2.043,-1.561 -0.358,0.778 -0.471,1.792 -0.812,2.579 -0.154,0.358 -1.592,0.259 -1.66,0.963 -0.089,0.919 1.923,2.689 2.311,3.693 0.695,1.794 1.138,1.086 -0.04,3.02 -1.356,2.227 -3.576,2.351 -3.221,5.588 0.718,-0.55 1.344,-1.19 1.88,-1.919 0.336,1.932 -0.504,3.635 -0.606,5.559 -0.067,1.258 1.464,6.279 0.31,7.119 -0.485,0.354 -1.782,-1.578 -1.9,-1.714 z m 101.394,-158.408 c 0.009,-4.238 -6.178,-10.756 -8.306,-14.303 -3.394,-5.659 -7.044,-10.782 -11.359,-15.783 -4.335,-5.024 -8.963,-9.813 -13.167,-14.947 -1.74,-2.123 -3.031,-4.603 -4.805,-6.682 -2.217,-2.596 -2.685,-1.798 -5.431,-1.729 -2.088,0.053 -3.45,-0.302 -5.38,0.318 -1.025,0.329 -1.689,0.818 -2.79,1.121 -0.689,0.191 -1.598,-0.478 -2.523,-0.155 -2.288,0.797 -3.066,2.837 -5.827,2.795 -0.331,-0.005 -1.391,-0.79 -1.544,-0.746 -0.187,0.054 -1.045,0.709 -1.015,0.702 -0.184,0.042 -0.131,1.341 -0.621,1.566 -0.838,0.386 -1.432,-0.908 -2.195,-0.824 -1.928,0.212 -3.362,2.202 -5.495,2.684 -2.74,0.619 -5.11,-0.284 -7.727,0.991 -2.091,1.018 -3.148,3.334 -4.887,0.94 -1.575,3.344 -4.474,2.331 -7.37,3.74 -4.038,1.965 -8.415,2.961 -12.715,4.445 -8.847,3.053 -17.756,6.181 -26.38,9.856 -17.889,7.624 -35.212996,16.078 -52.701996,24.274 -17.104,8.016 -32.924,18.645 -48.317,29.345 -7.547,5.245 -15.05,10.755 -20.937,17.938 -1.784,2.176 -4.7629996,5.556 -3.5609996,8.618 1.2719996,3.238 6.6479996,5.248 9.6879996,5.869 3.986,0.816 8.368,1.089 12.426,1.36 4.381,0.294 9.087,0.439 13.423,0.38 8.546,-0.118 16.928,-0.951 25.514,-1.14 9.767,-0.216 19.342,-2.276 29.089,-2.398 10.714996,-0.134 21.307996,-1.477 32.038996,-1.058 20.684,0.81 41.35,1.407 62.095,1.507 2.581,0.012 5.112,-0.299 7.647,0.151 2.057,0.364 3.543,1.084 5.749,0.926 2.055,-0.147 3.96,-1.046 6.054,-1.155 2.75,-0.143 5.567,0.31 8.331,0.253 9.332,-0.191 20.4,-1.039 29.396,1.912 3.573,1.173 8.065,4.588 5.887,9.014 -2.154,4.376 -7.656,0.809 -11.062,2.798 -3.173,1.853 -1.413,6.909 -1.189,9.932 0.423,5.728 0.5,11.426 0.349,17.166 -0.333,12.676 -1.105,25.337 -1.253,38.017 -0.071,6.159 0.017,12.316 0.342,18.467 0.287,5.429 0.096,11.338 1.952,16.519 2.585,-6.469 2.9,-13.611 3.925,-20.428 1.11,-7.375 2.195,-14.75 3.25,-22.134 0.627,-4.386 1.278,-30.728 9.861,-27.287 9.124,3.657 5.952,23.922 6.366,31.208 0.391,6.877 1.094,13.728 2.652,20.447 0.725,3.123 2.717,16.385 6.721,17.242 2.937,-13.879 6.042,-27.736 8.201,-41.764 0.953,-6.192 1.794,-12.431 2.174,-18.687 0.198,-3.256 -0.043,-11.083 4.664,-11.462 13.836,-1.115 4.554,57.182 14.893,64.516 3.824,-7.607 5.319,-15.54 6.357,-23.973 0.472,-3.839 1.482,-8.161 0.885,-12.011 -0.783,-5.037 -1.633,-8.125 -0.581,-13.33 0.86,-4.261 1.479,-8.636 2.473,-12.86 0.717,-3.044 2.588,-4.53 3.575,-7.275 2.781,-7.729 2.602,-17.513 3.711,-25.626 1.123,-8.217 2.307,-16.295 0.851,-24.584 -1.441,-8.209 -7.446,-10.819 -14.273,-14.208 -6.879,-3.414 -13.516,-7.166 -21.07,-8.672 -8.482,-1.69 -16.266,-3.33 -24.948,-3.779 -15.322,-0.791 -30.338,0.127 -45.591,0.853 -16.96,0.808 -33.937,-0.199 -50.888,-0.432 -8.24,-0.113 -16.635,-0.272 -24.861,-0.138 -4.122,0.068 -8.121,0.783 -12.27,0.679 -3.535,-0.088 -10.445,1.002 -13.539,-0.878 -2.428,-1.475 -2.425,-4.743 -0.375,-6.544 2.031,-1.785 6.014,-1.879 8.55,-2.43 8.105,-1.759 16.184,-2.769 24.347,-4.181 4.701,-0.813 8.645,-1.083 13.356,-0.854 4.575,0.224 9.241,-1.084 13.867,-1.306 9.803,-0.468 19.663,-0.932 29.471,-1.085 19.008,-0.296 37.797,-1.747 56.823,-1.701 z m 9.919,185.925 c -1.529,0.59 -1.14,7.895 -1.279,9.354 -0.413,4.369 -0.866,8.733 -1.255,13.104 -0.898,10.091 -1.574,20.204 -2.126,30.319 -0.551,10.116 -1.205,20.264 -1.172,30.398 0.015,4.314 0.208,8.624 0.121,12.938 -0.065,3.225 -1.484,9.259 1.268,11.55 1.846,1.537 5.462,0.845 7.619,0.703 4.262,-0.279 8.535,-0.564 12.808,-0.596 4.936,-0.038 9.838,0.493 14.777,0.364 1.895,-0.049 4.011,-0.365 5.887,-0.008 1.359,0.261 2.842,1.433 4.117,1.484 0.938,0.038 2.151,-0.893 3.188,-1.076 1.614,-0.285 3.508,0.045 5.15,0.025 1.168,-0.014 3.984,-0.542 5.058,0.148 1.047,0.672 0.644,2.203 1.601,2.542 0.364,0.129 2.442,-2.339 2.798,-2.495 1.591,-0.694 3.911,-0.154 5.588,-0.135 4.828,0.054 9.659,-0.251 14.489,-0.205 4.708,0.044 9.249,0.592 13.768,1.139 2.988,0.362 6.419,-0.545 9.591,-0.811 5.071,-0.425 10.164,-0.346 15.248,-0.244 2.552,0.051 5.106,0.091 7.658,0.154 0.604,0.015 1.8,-0.22 2.383,-0.046 2.342,0.703 0.856,0.744 2.511,1.813 -2.171,-1.403 4.858,-2.317 5.263,-2.32 3.19,-0.024 6.113,1.543 8.768,1.236 2.876,-0.332 5.812,-2.109 8.976,-1.558 1.479,0.258 2.707,1.912 3.806,2.102 1.776,0.307 2.383,-0.976 4.012,-1.618 3.25,-1.282 7.021,-0.165 10.414,-0.387 4.763,-0.311 9.349,-0.322 14.13,-0.386 8.723,-0.115 17.445,-0.259 26.169,-0.174 8.033,0.078 14.487,3.299 22.476,3.124 4.19,-0.091 8.451,-0.457 12.635,-0.356 3.593,0.085 5.428,2.763 2.712,5.909 -1.836,2.127 -5.208,2.352 -7.797,2.741 -3.843,0.579 -7.617,1.411 -11.447,2.053 -9.107,1.526 -18.639,1.479 -27.851,1.756 -37.569,1.131 -75.146,4.471 -112.738,4.824 -16.506,0.155 -33.189,1.545 -49.643,0.897 -9.179,-0.362 -18.152,1.611 -27.402,0.193 -3.9,-0.598 -7.734,-0.961 -11.666,-1.242 -0.512,-0.036 -3.515,-0.617 -4.082,-0.359 -1.675,0.763 -0.74,0.066 -1.443,2.003 -1.153,3.182 -0.672,8.257 -0.666,11.645 0.012,5.399 0.275,10.809 0.456,16.205 0.175,5.17 0.462,10.336 0.77,15.501 0.127,2.137 -0.714,10.172 0.934,11.765 1.275,1.234 7.24,0.65 8.854,0.305 1.936,-0.414 2.117,-0.516 4.213,-0.27 1.546,0.182 2.096,0.137 3.644,-0.03 4.433,-0.479 9.51,-0.564 13.961,0.237 3.454,0.621 7.082,-1.018 8.404,2.615 2.235,-2.736 2.184,-1.16 4.64,-0.61 2.53,0.565 1.755,-1.069 3.899,-1.294 1.511,-0.158 2.859,1.036 4.493,1.047 2.699,0.017 5.127,-0.696 8.013,-0.336 12.742,1.59 25.664,3.019 38.513,3.137 5.331,0.05 10.599,0.132 15.901,0.294 2.705,0.082 5.263,0.364 7.923,0.683 2.507,0.302 4.477,-0.301 7.083,-0.433 5.763,-0.294 11.809,0.584 17.573,0.899 2.71,0.148 6.104,-0.318 8.703,0.038 2.612,0.357 2.809,2.341 4.886,3.491 0.328,-6.437 13.789,-2.314 17.293,-2.306 1.376,0.004 3.057,-0.582 4.718,-0.476 2.749,0.177 5.517,0.222 8.27,0.319 4.39,0.154 8.633,0.42 12.803,-0.112 5.448,-0.694 11.365,0.046 16.868,0.012 5.992,-0.038 11.985,-0.119 17.974,-0.315 6.068,-0.199 12.125,-0.57 18.192,-0.765 5.27,-0.17 10.861,0.255 16.056,-0.131 1.347,-0.1 2.635,-1.087 3.839,-1.138 1.669,-0.071 3.538,0.646 5.464,0.481 6.071,-0.518 11.728,-0.603 17.864,-0.582 10.526,0.036 21.462,-1.908 31.554,-4.696 4.652,-1.285 9.487,-1.355 14.106,-2.733 5.332,-1.592 10.215,-4.367 15.122,-6.935 3.843,-2.012 9.246,-2.948 7.681,-8.035 -1.67,-5.431 -4.337,-10.697 -6.325,-16.032 -1.728,-4.638 -2.83,-9.157 -6.576,-12.646 -3.702,-3.448 -8.431,-5.763 -12.375,-8.942 -8.596,-6.928 -17.569,-11.071 -27.748,-15.174 -10.26,-4.136 -19.62,-10.235 -30.398,-12.985 -10.008,-2.554 -19.65,-5.978 -29.456,-8.595 -10.729,-2.863 -21.793,-3.901 -32.614,-6.446 -10.371,-2.44 -20.553,-6.028 -31.061,-7.886 -11.369,-2.009 -22.843,-3.043 -34.17,-5.495 -9.603,-2.078 -18.765,-6.149 -28.418,-7.773 -2.82,-0.475 -5.869,-0.765 -8.598,-1.651 -2.552,-0.829 -4.378,-2.507 -6.958,-3.187 -5.956,-1.569 -11.132,-3.708 -16.771,-6.258 -2.371,-1.073 -3.685,-2.391 -5.74,-3.721 -2.451,-1.585 -5.59,-2.148 -8.341,-3.022 -5.299,-1.683 -10.577,-3.338 -15.331,-6.293 -4.928,-3.062 -9.455,-6.524 -13.991,-10.102 -1.921,-1.515 -3.975,-3.036 -5.944,-4.453 -2.426,-1.745 -4.915,-2.061 -7.634,-3.201 -11.793,-4.948 -16.957,-16.564 -23.381,-26.671 -0.603,8.185 -8.434,11.983 -13.259,4.199 z m 167.603,-143.375 c 0.813,-3.666 1.972,-8.927 -2.597,-9.13217 -0.294,-0.0128 -3.321,0.74317 -3.633,0.94417 -1.557,1.001 -2.146,4.34 -2.74,5.961 -0.523,1.43 -0.886,3.334 -2.048,4.414 -1.146,1.067 -2.343,1.093 -3.413,2.371 -3.255,3.889 -5.68,10.569 -7.649,15.264 2.671,-0.646 0.73,1.146 1.866,2.167 1.775,1.594 1.222,1.306 3.745,1.553 4.396,0.43 6.402,-0.741 9.839,-3.479 2.915,-2.322 3.851,-3.843 5.529,-7.195 2.399,-4.788 1.229,-7.839 1.096,-12.871 1.203,1.107 2.406,2.214 3.609,3.322 -0.373,-1.451 -0.747,-2.902 -1.12,-4.352 z M 315.67696,8.0700758 c 2.336,-7.99599998 6.7,-8.58699998 12.567,-2.842 0.93,-2.055 2.031,-5.24599998 4.736,-5.2280758 1.917,0.01307582 2.256,1.5630758 3.542,2.6090758 1.552,1.265 2.762,1.709 4.732,2.046 4.299,0.735 8.294,0.483 12.34,2.405 3.686,1.75 5.439,4.3060002 8.277,6.9270002 2.655,2.452 4.592,0.864 7.623,2.105 3.37,1.38 4.877,5.464 5.53,8.773 0.797,4.048 -0.033,5.338 2.781,8.277 2.654,2.773 4.062,6.304 4.382,10.114 0.301,3.603 -0.494,7.879 -2.574,10.917 -2.341,3.422 -4.767,2.476 -1.719,6.541 1.534,2.047 1.707,6.404 3.552,7.716 3.228,2.293 7.396,-1.406 10.247,-2.337 3.874,-1.265 3.01,0.851 4.709,3.403 2.511,3.77 4.004,-0.12 7.429,0.633 1.259,0.277 1.628,1.636 2.071,1.799 1.564,0.58 -0.097,0.365 1.69,-0.28 1.188,-0.428 0.374,-2.732 2.767,-1.417 1.663,0.915 0.411,2.542 1.167,3.72 1.485,2.316 3.69,0.966 4.788,3.955 1.092,2.977 2.571,6.925 3.178,10.18 0.74,3.954 -0.997,7.395 -0.743,11.136 0.266,3.907004 4.137,6.540004 6.545,9.279004 11.809,13.424 16.809,31.08 20.661,48.146 3.581,15.861 -2.721,33.817 -15.095,44.567 -6.273,5.45 -14.11,7.787 -20.134,13.785 -2.674,2.662 -2.639,3.505 0.547,5.687 2.61,1.787 5.004,4.064 7.77,5.476 7.111,3.63 14.04,6.223 21.98,7.747 4.004,0.769 8.173,0.461 12.224,0.317 4.217,-0.15 8.977,0.448 13.099,-0.067 3.641,-0.455 6.521,-3.394 10.333,-3.082 1.494,0.122 2.41,0.693 3.931,0.558 1.997,-0.176 3.677,-1.233 5.801,-1.179 3.229,0.082 6.424,0.136 9.546,0.254 3.546,0.132 7.714,-0.839 11.243,-0.226 3.349,0.581 7.332,3.593 10.245,5.349 3.591,2.165 7.902,4.669 11.117,7.314 3.037,2.5 5.179,6.478 7.548,9.582 2.505,3.284 5.404,6.218 7.923,9.487 9.918,12.869 20.365,28.72 23.466,44.922 0.785,4.1 0.742,8.149 0.151,12.267 -0.529,3.678 -3.98,5.076 -4.085,9.03 -0.213,8.002 3.621,17.279 5.847,24.863 2.345,7.985 5.282,15.741 8.919,23.25 1.408,2.908 3.193,5.312 4.079,8.324 1.082,3.679 2.73,7.169 3.935,10.88 10.426,32.099 26.588,61.98 38.369,93.592 6.331,16.987 13.026,33.828 19.929,50.598 3.397,8.256 7.077,16.259 10.77,24.389 0.486,1.068 0.831,3.127 1.677,3.862 1.429,1.242 0.169,0.535 2.17,0.324 1.726,-0.182 3.518,-0.969 5.26,-1.261 4.204,-0.706 8.51,-0.827 12.75,-1.245 4.872,-0.482 9.161,-0.733 14.036,-0.497 4.537,0.22 9.003,-1.128 13.519,-1.427 9.681,-0.641 19.228,-0.303 28.902,-0.122 7.538,0.141 17.19,-0.755 24.165,2.745 6.988,3.506 4.577,11.58 -1.349,14.655 -7.101,3.685 -15.459,4.211 -22.516,7.966 5.296,1.63 11.018,1.21 16.413,2.482 3.477,0.82 8.852,1.426 11.473,3.964 2.538,2.459 2.281,6.694 0.606,9.578 -2.086,3.59 -6.098,4.21 -9.709,5.455 1.627,2.156 4.156,1.988 5.62,4.829 1.945,3.779 0.729,7.816 -1.653,11.083 -5.169,7.093 -15.405,7.692 -23.396,8.703 -7.852,0.994 -16.098,1.232 -24.003,0.694 -4.504,-0.307 -8.948,-0.532 -13.396,-1.166 -5.117,-0.73 -4.625,2.855 -6.448,6.524 -1.764,3.552 -4.31,5.074 -8.25,4.855 -4.254,-0.238 -8.971,-0.527 -13.185,-1.24 -4.035,-0.682 -7.529,-2.765 -11.399,-3.633 -3.485,-0.783 -6.252,-2.047 -9.563,-3.742 -3.8,-1.945 -5.821,-5.2 -9.147,-7.435 -3.414,-2.294 -6.986,1.31 -10.343,3.104 -8.159,4.359 -17.113,6.287 -26.037,8.43 -9.1,2.186 -17.962,4.983 -27.217,6.496 -4.307,0.703 -8.398,0.609 -12.685,1.066 -4.94,0.527 -9.222,2.414 -14.267,2.424 -17.816,0.037 -35.747,3.253 -53.571,3.848 -17.645,0.589 -35.576,-0.871 -53.202,0.311 -9.012,0.605 -17.734,-0.608 -26.696,-0.142 -9.245,0.482 -18.817,-0.005 -28.043,-0.711 -19.146,-1.465 -37.697,-1.084 -56.642,-2.033 -9.855,-0.494 -19.903,-1.422 -29.634,-2.987 -9.541,-1.534 -20.338,0.233 -27.086,-8.067 -0.742,3.254 -0.945,6.628 -3.323,9.194 -2.501,2.698 -6.53,3.787 -9.878,5.016 -8.549,3.137 -17.191,6.117 -25.799,9.094 -8.159,2.823 -16.371,5.88 -24.595,8.467 -8.644,2.719 -16.867,6.015 -25.365,9.207 -7.7,2.892 -15.678,5.177 -23.098,8.664 -3.061,1.438 -6.267,1.557 -9.193,2.9 -3.614,1.658 -6.971,3.249 -10.843,4.445 -3.321,1.026 -6.359,1.764 -9.573,3.098 -3.182,1.321 -7.69,3.615 -11.02,1.858 -2.341,-1.234 -3.26,-4.07 -3.98,-6.438 -0.902,-2.961 -0.133,-8.099 -3.639,-7.966 -3.464,0.131 -8.354,3.465 -11.75,4.596 -4.062996,1.354 -8.221996,3.618 -12.406996,4.385 -4.19,0.767 -7.488,0.537 -9.686,-3.359 -2.474,-4.384 -2.062,-9.03 -1.322,-13.799 -7.132,-0.017 -13.738,0.653 -20.932,0.897 -3.963,0.135 -7.817,0.311 -11.769,-0.126 -3.567,-0.393 -8.87,0.725 -11.964,-0.907 -6.289,-3.32 -5.353,-12.71 -2.181,-17.845 1.762,-2.851 4.523,-4.773 7.329,-6.503 3.519,-2.168 6.099,-4.627 9.181,-7.389 -2.01,-1.385 -4.624,-0.712 -6.595,-2.362 -1.531,-1.28 -2.484,-3.416 -3.183,-5.238 -1.303,-3.397 0.376,-11.19 -2.564,-13.115 -1.57,-1.027 -4.351,-0.592 -6.145,-1.416 -2.451,-1.125 -4.172,-3.2 -5.228,-5.669 -2.378,-5.566 -0.34,-11.36 1.98,-16.56 -8.79,-1.499 -21.6759996,-2.095 -24.18999956,-12.274 -0.804,-3.251 -0.914,-7.015 0.19199996,-10.212 1.642,-4.744 5.466,-5 9.7059996,-6.391 17.727,-5.818 34.33,-15.266 53.429,-16.667 10.23,-0.75 20.534,-1.145 30.752,-2.206 10.262996,-1.066 20.156996,-2.947 30.487996,-1.67 4.395,0.543 9.483,0.059 13.687,0.854 4.065,0.767 4.58,5.562 1.473,8.33 -3.02,2.689 -7.4,0.969 -10.996,1.271 -5.096,0.427 -9.389,2.838 -14.147,4.356 -11.675,3.726 -24.467996,6.37 -36.642996,7.708 -6.536,0.718 -12.709,0.814 -19.107,2.557 -5.812,1.584 -11.564,3.383 -17.396,4.899 6.372,1.704 18.715,1.514 20.836,9.277 0.997,3.653 -0.109,8.708 -3.321,10.967 -1.865,1.312 -5.939,0.713 -7.113,2.673 5.017,0.616 10.739,-3.244 13.493,2.276 3.143,6.299 0.068,11.271 -3.953,15.948 3.553,-0.589 7.206,0.082 10.794,-0.373 2.769,-0.352 5.355,-1.185 7.986,-0.318 1.32,0.435 1.146,1.611 2.813,1.618 1.212,0.005 3.027,-1.313 4.079,-1.821 3.998,-1.93 8.055,-3.5 12.186996,-5.111 5.028,-1.96 9.806,-3.467 14.824,-4.697 6.929,-1.7 13.884,-6.063 20.644,-8.53 2.864,-1.045 6.546,-2.116 7.969,-5.098 1.468,-3.076 0.343,-7.58 0.253,-10.833 -0.255,-9.152 -0.146,-18.317 -0.09,-27.471 0.047,-7.699 0.232,-15.253 0.917,-22.922 0.819,-9.177 0.086,-18.321 0.437,-27.512 0.323,-8.44 -0.434,-16.86 -0.204,-25.297 0.257,-9.399 0.727,-18.764 0.824,-28.174 0.173,-16.903 0.742,-33.786 1.069,-50.685 0.336,-17.359 2.176,-34.725 5.886,-51.699 1.662,-7.603 3.832,-15.347 6.725,-22.571 0.916,-2.288 1.876,-2.418 -0.326,-3.726 -1.306,-0.775 -2.919,0.091 -4.2,0.263 -2.694,0.36 -5.099,0.519 -7.841,0.358 -15.718,-0.921 -31.992,-0.176 -47.652996,1.237 -8.145,0.735 -16.334,1.435 -24.512,1.727 -8.156,0.29 -16.312,1.555 -24.469,0.957 -13.667,-1.001 -29.255,0.563 -40.9679996,-8.24 -12.499,-9.392 -11.322,-26.033 -3.251,-38.056 8.9069996,-13.269 23.7839996,-20.829 36.2069996,-30.127 12.205,-9.135 26.551,-15.835 39.862,-23.192 28.494996,-15.751 59.114996,-30.33 89.794996,-41.215 31.214,-11.073 62.533,-23.803 96.529,-21.639 17.223,1.096 36.492,1.736 51.685,10.887 8.116,4.89 15.973,9.988 22.946,16.447 3.285,3.043 6.18,6.793 9.678,9.573 3.251,2.585 6.44,0.815 10.155,-0.135 -2.632,-8.493 -5.264,-16.987 -7.896,-25.48 -3.634,2.82 -8.635,3.892 -13.361,2.895 -5.737,-1.211 -5.272,-3.662 -4.759,-8.571 0.24,-2.277 0.861,-1.888 -1.115,-3.326 -1.62,-1.18 -4.581,-1.566 -6.446,-2.588 -4.653,-2.549 -8.686,-6.292 -10.401,-11.431 -1.705,-5.11 -0.497,-9.85 0.619,-14.922 1.341,-6.099 -1.975,-3.549 -5.767,-6.385 -1.668,-1.248 -2.266,-2.332 -1.979,-4.393 0.234,-1.673 3.541,-4.082 3.393,-5.729 -0.179,-1.985 -1.284,-1.763 -2.854,-2.96 -1.732,-1.321 -2.979,-2.941 -3.743,-5.02 -1.618,-4.403 1.68,-7.123 3.062,-11.183 0.67,-1.968 1.329,-3.651 2.645,-5.307 2.332,-2.934 3.237,-2.87 6.49,-2.844 2.739,0.021 2.709,-0.203 4.761,-2.68 0.796,-0.961004 1.59,-1.916004 2.278,-2.959004 1.182,-1.791 1.51,-1.548 0.246,-2.947 -3.852,-4.264 -5.609,2.393 -9.03,1.991 -3.957,-0.465 -4.667,-6.74 -7.148,-8.836 -1.736,-1.467 -3.717,-0.908 -5.615,-1.899 -2.322,-1.211 -2.788,-3.52 -4.295,-5.455 -2.446,-3.14 -5.997,-3.694 -7.629,-7.678 -0.926,-2.261 -1.053,-4.589 -1.241,-6.986 -0.269,-3.413 -1.162,-6.111 -2.155,-9.36 -1.012,-3.314 -0.763,-5.709 0.883,-8.758 1.696,-3.142 1.896,-4.199 1.469,-7.743 -0.325,-2.698 -0.425,-5.093 0.983,-7.5 1.518,-2.594 1.834,-3.948 2.329,-6.903 0.431,-2.591 1.254,-4.457 3.759,-5.532 1.707,-0.733 3.555,0.083 4.761,-1.586 1.203,-1.666 0.882,-4.335 2.118,-6.176 2.016,-3.0030002 5.048,-3.4730002 8.35,-4.1500002 z"
             id="react-path-123" />
          <path
             d="m 415.48246,141.51618 c -1.172,-2.753 -5.093,-15.451 1.356,-15.51619 5.117,-0.0518 3.5,10.96719 3.563,13.67219 0.117,5.063 5.414,5.782 7.395,10.375 2.312,5.355 0.717,11.749 -2.886,16.114 -2.751,3.331 -8.045,7.148 -11.824,3.07 -4.202,-4.538 -0.164,-7.085 2.778,-9.911 4.261,-4.095 -3.892,-5.285 -6.009,-8.607 -3.597,-5.646 0.352,-8.583 5.627,-9.197"
             id="react-path-124" />
          <path
             d="m 397.00686,144.38048 c -0.588,2.614 -0.409,8.583 -3.249,9.992 -4.763,2.363 -5.863,-9.033 -5.826,-11.549 0.04,-2.676 0.966,-8.999 4.912,-8.18 4.428,0.919 1.916,9.118 4.163,9.737"
             id="react-path-125" />
          <path
             d="m 414.82326,177.48008 c 7.042,0.219 6.646,8.617 -0.107,8.91 -6.284,0.273 -6.129,-9.103 0.107,-8.91"
             id="react-path-126" />
          <path
             d="m 429.79986,302.65438 c -0.658,2.798 -2.192,5.436 -4.491,7.199 0.542,-1.106 2.895,-7.697 4.491,-7.199"
             id="react-path-127" />
        </g>
      </g>
    </g>
  </g>
</svg>
